<svg width="128" height="128" viewBox="0 0 128 128" fill="none" xmlns="https://www.svgviewer.dev/s/334694/peru-nuevo-sol-currency-symbol">
  
  <g transform="translate(0, 0) scale(0.25)">
    <!-- Fondo con gradiente -->
    <rect width="512" height="512" rx="64" fill="url(#gradient)"/>
    
    <!-- Definición del gradiente -->
    <defs>
      <linearGradient id="gradient" x1="0%" y1="0%" x2="100%" y2="100%">
        <stop offset="0%" style="stop-color:#3B82F6;stop-opacity:1" />
        <stop offset="100%" style="stop-color:#1E40AF;stop-opacity:1" />
      </linearGradient>
    </defs>
    
    <!-- Icono de almacén/warehouse -->
    <g transform="translate(128, 128)">
      <!-- Edificio principal -->
      <rect x="32" y="80" width="192" height="176" fill="white" opacity="0.9" rx="8"/>
      
      <!-- Techo -->
      <path d="M16 80 L128 32 L240 80 L224 88 L128 48 L32 88 Z" fill="white"/>
      
      <!-- Puerta principal -->
      <rect x="96" y="160" width="64" height="96" fill="#3B82F6" rx="4"/>
      
      <!-- Ventanas -->
      <rect x="48" y="112" width="24" height="24" fill="#3B82F6" rx="2"/>
      <rect x="184" y="112" width="24" height="24" fill="#3B82F6" rx="2"/>
      <rect x="48" y="160" width="24" height="24" fill="#3B82F6" rx="2"/>
      <rect x="184" y="160" width="24" height="24" fill="#3B82F6" rx="2"/>
      
      <!-- Detalles del almacén -->
      <rect x="112" y="180" width="32" height="8" fill="white" opacity="0.7" rx="2"/>
      <rect x="112" y="200" width="32" height="8" fill="white" opacity="0.7" rx="2"/>
      <rect x="112" y="220" width="32" height="8" fill="white" opacity="0.7" rx="2"/>
      
      <!-- Símbolo de cajas/inventario -->
      <g transform="translate(200, 200)">
        <rect x="0" y="16" width="24" height="24" fill="white" opacity="0.8" rx="2"/>
        <rect x="8" y="8" width="24" height="24" fill="white" opacity="0.9" rx="2"/>
        <rect x="16" y="0" width="24" height="24" fill="white" rx="2"/>
      </g>
    </g>
  </g>
</svg>